<mxfile host="app.diagrams.net" agent="Mozilla/5.0 (Windows NT 10.0; Win64; x64) AppleWebKit/537.36 (KHTML, like Gecko) Chrome/136.0.0.0 Safari/537.36" version="27.0.3">
  <diagram name="PÃ¡gina-1" id="2yV_-wDwk45xmR6gDes-">
    <mxGraphModel dx="1426" dy="743" grid="1" gridSize="10" guides="1" tooltips="1" connect="1" arrows="1" fold="1" page="1" pageScale="1" pageWidth="827" pageHeight="1169" math="0" shadow="0">
      <root>
        <mxCell id="0" />
        <mxCell id="1" parent="0" />
        <mxCell id="ZHKdVgREtUWNEgDNEaxb-40" style="edgeStyle=orthogonalEdgeStyle;rounded=1;orthogonalLoop=1;jettySize=auto;html=1;exitX=0;exitY=0;exitDx=0;exitDy=0;entryX=0.609;entryY=1.005;entryDx=0;entryDy=0;entryPerimeter=0;labelBackgroundColor=none;fontColor=default;strokeColor=light-dark(#000000,#FFFFFF);" parent="1" source="ZHKdVgREtUWNEgDNEaxb-5" target="ZHKdVgREtUWNEgDNEaxb-12" edge="1">
          <mxGeometry relative="1" as="geometry">
            <mxPoint x="220" y="290" as="targetPoint" />
          </mxGeometry>
        </mxCell>
        <mxCell id="ZHKdVgREtUWNEgDNEaxb-48" style="edgeStyle=orthogonalEdgeStyle;rounded=1;orthogonalLoop=1;jettySize=auto;html=1;exitX=1;exitY=0;exitDx=0;exitDy=0;entryX=0;entryY=0.5;entryDx=0;entryDy=0;labelBackgroundColor=none;fontColor=default;strokeColor=light-dark(#000000,#FFFFFF);" parent="1" source="ZHKdVgREtUWNEgDNEaxb-5" target="ZHKdVgREtUWNEgDNEaxb-20" edge="1">
          <mxGeometry relative="1" as="geometry">
            <mxPoint x="480" y="240" as="targetPoint" />
          </mxGeometry>
        </mxCell>
        <mxCell id="ZHKdVgREtUWNEgDNEaxb-5" value="Usuario&amp;nbsp;" style="swimlane;fontStyle=1;align=center;verticalAlign=top;childLayout=stackLayout;horizontal=1;startSize=26;horizontalStack=0;resizeParent=1;resizeParentMax=0;resizeLast=0;collapsible=1;marginBottom=0;whiteSpace=wrap;html=1;rounded=1;labelBackgroundColor=none;strokeColor=light-dark(#000000,#FFFFFF);" parent="1" vertex="1">
          <mxGeometry x="320" y="300" width="160" height="180" as="geometry" />
        </mxCell>
        <mxCell id="ZHKdVgREtUWNEgDNEaxb-6" value="+id: int&lt;div&gt;+nome: string&lt;/div&gt;&lt;div&gt;+email: string&lt;/div&gt;&lt;div&gt;+senha: string&lt;/div&gt;&lt;div&gt;+dataNascimento: date&lt;/div&gt;&lt;div&gt;+perfil: string&lt;/div&gt;" style="text;align=left;verticalAlign=top;spacingLeft=4;spacingRight=4;overflow=hidden;rotatable=0;points=[[0,0.5],[1,0.5]];portConstraint=eastwest;whiteSpace=wrap;html=1;rounded=1;labelBackgroundColor=none;strokeColor=light-dark(#000000,#FFFFFF);" parent="ZHKdVgREtUWNEgDNEaxb-5" vertex="1">
          <mxGeometry y="26" width="160" height="104" as="geometry" />
        </mxCell>
        <mxCell id="ZHKdVgREtUWNEgDNEaxb-7" value="" style="line;strokeWidth=1;align=left;verticalAlign=middle;spacingTop=-1;spacingLeft=3;spacingRight=3;rotatable=0;labelPosition=right;points=[];portConstraint=eastwest;rounded=1;labelBackgroundColor=none;strokeColor=light-dark(#000000,#FFFFFF);" parent="ZHKdVgREtUWNEgDNEaxb-5" vertex="1">
          <mxGeometry y="130" width="160" height="8" as="geometry" />
        </mxCell>
        <mxCell id="ZHKdVgREtUWNEgDNEaxb-8" value="+editarPerfil()&lt;div&gt;+excluirPerfil()&lt;/div&gt;" style="text;align=left;verticalAlign=top;spacingLeft=4;spacingRight=4;overflow=hidden;rotatable=0;points=[[0,0.5],[1,0.5]];portConstraint=eastwest;whiteSpace=wrap;html=1;rounded=1;labelBackgroundColor=none;strokeColor=light-dark(#000000,#FFFFFF);" parent="ZHKdVgREtUWNEgDNEaxb-5" vertex="1">
          <mxGeometry y="138" width="160" height="42" as="geometry" />
        </mxCell>
        <mxCell id="ZHKdVgREtUWNEgDNEaxb-9" value="Perfil" style="swimlane;fontStyle=1;align=center;verticalAlign=top;childLayout=stackLayout;horizontal=1;startSize=26;horizontalStack=0;resizeParent=1;resizeParentMax=0;resizeLast=0;collapsible=1;marginBottom=0;whiteSpace=wrap;html=1;rounded=1;labelBackgroundColor=none;strokeColor=light-dark(#000000,#FFFFFF);" parent="1" vertex="1">
          <mxGeometry x="120" y="110" width="160" height="150" as="geometry" />
        </mxCell>
        <mxCell id="ZHKdVgREtUWNEgDNEaxb-10" value="+foto: string&lt;div&gt;+biografia: string&lt;/div&gt;&lt;div&gt;+nivel: int&lt;/div&gt;&lt;div&gt;+pontos: int&lt;/div&gt;&lt;div&gt;&lt;br&gt;&lt;/div&gt;" style="text;align=left;verticalAlign=top;spacingLeft=4;spacingRight=4;overflow=hidden;rotatable=0;points=[[0,0.5],[1,0.5]];portConstraint=eastwest;whiteSpace=wrap;html=1;rounded=1;labelBackgroundColor=none;strokeColor=light-dark(#000000,#FFFFFF);" parent="ZHKdVgREtUWNEgDNEaxb-9" vertex="1">
          <mxGeometry y="26" width="160" height="74" as="geometry" />
        </mxCell>
        <mxCell id="ZHKdVgREtUWNEgDNEaxb-11" value="" style="line;strokeWidth=1;align=left;verticalAlign=middle;spacingTop=-1;spacingLeft=3;spacingRight=3;rotatable=0;labelPosition=right;points=[];portConstraint=eastwest;rounded=1;labelBackgroundColor=none;strokeColor=light-dark(#000000,#FFFFFF);" parent="ZHKdVgREtUWNEgDNEaxb-9" vertex="1">
          <mxGeometry y="100" width="160" height="8" as="geometry" />
        </mxCell>
        <mxCell id="ZHKdVgREtUWNEgDNEaxb-12" value="+atualizarNivel()&lt;div&gt;+ganharPontos()&lt;/div&gt;" style="text;align=left;verticalAlign=top;spacingLeft=4;spacingRight=4;overflow=hidden;rotatable=0;points=[[0,0.5],[1,0.5]];portConstraint=eastwest;whiteSpace=wrap;html=1;rounded=1;labelBackgroundColor=none;strokeColor=light-dark(#000000,#FFFFFF);" parent="ZHKdVgREtUWNEgDNEaxb-9" vertex="1">
          <mxGeometry y="108" width="160" height="42" as="geometry" />
        </mxCell>
        <mxCell id="ZHKdVgREtUWNEgDNEaxb-42" style="edgeStyle=orthogonalEdgeStyle;rounded=1;orthogonalLoop=1;jettySize=auto;html=1;exitX=0.25;exitY=0;exitDx=0;exitDy=0;entryX=0.467;entryY=1.001;entryDx=0;entryDy=0;entryPerimeter=0;labelBackgroundColor=none;fontColor=default;strokeColor=light-dark(#000000,#FFFFFF);" parent="1" source="ZHKdVgREtUWNEgDNEaxb-13" target="ZHKdVgREtUWNEgDNEaxb-20" edge="1">
          <mxGeometry relative="1" as="geometry">
            <mxPoint x="600" y="270" as="targetPoint" />
          </mxGeometry>
        </mxCell>
        <mxCell id="ZHKdVgREtUWNEgDNEaxb-13" value="Missao" style="swimlane;fontStyle=1;align=center;verticalAlign=top;childLayout=stackLayout;horizontal=1;startSize=26;horizontalStack=0;resizeParent=1;resizeParentMax=0;resizeLast=0;collapsible=1;marginBottom=0;whiteSpace=wrap;html=1;rounded=1;labelBackgroundColor=none;strokeColor=light-dark(#000000,#FFFFFF);" parent="1" vertex="1">
          <mxGeometry x="570" y="323" width="160" height="134" as="geometry" />
        </mxCell>
        <mxCell id="ZHKdVgREtUWNEgDNEaxb-14" value="+id: int&lt;div&gt;+titulo: string&lt;/div&gt;&lt;div&gt;+descricao: string&lt;/div&gt;&lt;div&gt;+pontosRecompensa: int&lt;/div&gt;&lt;div&gt;&lt;br&gt;&lt;/div&gt;" style="text;align=left;verticalAlign=top;spacingLeft=4;spacingRight=4;overflow=hidden;rotatable=0;points=[[0,0.5],[1,0.5]];portConstraint=eastwest;whiteSpace=wrap;html=1;rounded=1;labelBackgroundColor=none;strokeColor=light-dark(#000000,#FFFFFF);" parent="ZHKdVgREtUWNEgDNEaxb-13" vertex="1">
          <mxGeometry y="26" width="160" height="74" as="geometry" />
        </mxCell>
        <mxCell id="ZHKdVgREtUWNEgDNEaxb-15" value="" style="line;strokeWidth=1;align=left;verticalAlign=middle;spacingTop=-1;spacingLeft=3;spacingRight=3;rotatable=0;labelPosition=right;points=[];portConstraint=eastwest;rounded=1;labelBackgroundColor=none;strokeColor=light-dark(#000000,#FFFFFF);" parent="ZHKdVgREtUWNEgDNEaxb-13" vertex="1">
          <mxGeometry y="100" width="160" height="8" as="geometry" />
        </mxCell>
        <mxCell id="ZHKdVgREtUWNEgDNEaxb-16" value="+concluirMissao()" style="text;align=left;verticalAlign=top;spacingLeft=4;spacingRight=4;overflow=hidden;rotatable=0;points=[[0,0.5],[1,0.5]];portConstraint=eastwest;whiteSpace=wrap;html=1;rounded=1;labelBackgroundColor=none;strokeColor=light-dark(#000000,#FFFFFF);" parent="ZHKdVgREtUWNEgDNEaxb-13" vertex="1">
          <mxGeometry y="108" width="160" height="26" as="geometry" />
        </mxCell>
        <mxCell id="ZHKdVgREtUWNEgDNEaxb-17" value="Conteudo_Educativo" style="swimlane;fontStyle=1;align=center;verticalAlign=top;childLayout=stackLayout;horizontal=1;startSize=26;horizontalStack=0;resizeParent=1;resizeParentMax=0;resizeLast=0;collapsible=1;marginBottom=0;whiteSpace=wrap;html=1;rounded=1;labelBackgroundColor=none;strokeColor=light-dark(#000000,#FFFFFF);" parent="1" vertex="1">
          <mxGeometry x="510" y="100" width="160" height="150" as="geometry" />
        </mxCell>
        <mxCell id="ZHKdVgREtUWNEgDNEaxb-18" value="+id: int&lt;div&gt;+titulo: string&lt;/div&gt;&lt;div&gt;+tipo: enum&lt;/div&gt;&lt;div&gt;+categoria: string&lt;/div&gt;&lt;div&gt;&lt;br&gt;&lt;/div&gt;" style="text;align=left;verticalAlign=top;spacingLeft=4;spacingRight=4;overflow=hidden;rotatable=0;points=[[0,0.5],[1,0.5]];portConstraint=eastwest;whiteSpace=wrap;html=1;rounded=1;labelBackgroundColor=none;strokeColor=light-dark(#000000,#FFFFFF);" parent="ZHKdVgREtUWNEgDNEaxb-17" vertex="1">
          <mxGeometry y="26" width="160" height="74" as="geometry" />
        </mxCell>
        <mxCell id="ZHKdVgREtUWNEgDNEaxb-19" value="" style="line;strokeWidth=1;align=left;verticalAlign=middle;spacingTop=-1;spacingLeft=3;spacingRight=3;rotatable=0;labelPosition=right;points=[];portConstraint=eastwest;rounded=1;labelBackgroundColor=none;strokeColor=light-dark(#000000,#FFFFFF);" parent="ZHKdVgREtUWNEgDNEaxb-17" vertex="1">
          <mxGeometry y="100" width="160" height="8" as="geometry" />
        </mxCell>
        <mxCell id="ZHKdVgREtUWNEgDNEaxb-20" value="+assistir()&lt;div&gt;+responderQuiz()&lt;/div&gt;" style="text;align=left;verticalAlign=top;spacingLeft=4;spacingRight=4;overflow=hidden;rotatable=0;points=[[0,0.5],[1,0.5]];portConstraint=eastwest;whiteSpace=wrap;html=1;rounded=1;labelBackgroundColor=none;strokeColor=light-dark(#000000,#FFFFFF);" parent="ZHKdVgREtUWNEgDNEaxb-17" vertex="1">
          <mxGeometry y="108" width="160" height="42" as="geometry" />
        </mxCell>
        <mxCell id="ZHKdVgREtUWNEgDNEaxb-21" value="Menssagem" style="swimlane;fontStyle=1;align=center;verticalAlign=top;childLayout=stackLayout;horizontal=1;startSize=26;horizontalStack=0;resizeParent=1;resizeParentMax=0;resizeLast=0;collapsible=1;marginBottom=0;whiteSpace=wrap;html=1;rounded=1;labelBackgroundColor=none;strokeColor=light-dark(#000000,#FFFFFF);" parent="1" vertex="1">
          <mxGeometry x="70" y="380" width="160" height="160" as="geometry" />
        </mxCell>
        <mxCell id="ZHKdVgREtUWNEgDNEaxb-22" value="+ id: int&lt;div&gt;+remetente: usuario&lt;/div&gt;&lt;div&gt;+destinario: usuario&lt;/div&gt;&lt;div&gt;+conteudo: string&lt;/div&gt;&lt;div&gt;+dataHora: daatetime&lt;/div&gt;" style="text;align=left;verticalAlign=top;spacingLeft=4;spacingRight=4;overflow=hidden;rotatable=0;points=[[0,0.5],[1,0.5]];portConstraint=eastwest;whiteSpace=wrap;html=1;rounded=1;labelBackgroundColor=none;strokeColor=light-dark(#000000,#FFFFFF);" parent="ZHKdVgREtUWNEgDNEaxb-21" vertex="1">
          <mxGeometry y="26" width="160" height="84" as="geometry" />
        </mxCell>
        <mxCell id="ZHKdVgREtUWNEgDNEaxb-23" value="" style="line;strokeWidth=1;align=left;verticalAlign=middle;spacingTop=-1;spacingLeft=3;spacingRight=3;rotatable=0;labelPosition=right;points=[];portConstraint=eastwest;rounded=1;labelBackgroundColor=none;strokeColor=light-dark(#000000,#FFFFFF);" parent="ZHKdVgREtUWNEgDNEaxb-21" vertex="1">
          <mxGeometry y="110" width="160" height="8" as="geometry" />
        </mxCell>
        <mxCell id="ZHKdVgREtUWNEgDNEaxb-24" value="+enviar()&lt;div&gt;+deletar()&lt;/div&gt;" style="text;align=left;verticalAlign=top;spacingLeft=4;spacingRight=4;overflow=hidden;rotatable=0;points=[[0,0.5],[1,0.5]];portConstraint=eastwest;whiteSpace=wrap;html=1;rounded=1;labelBackgroundColor=none;strokeColor=light-dark(#000000,#FFFFFF);" parent="ZHKdVgREtUWNEgDNEaxb-21" vertex="1">
          <mxGeometry y="118" width="160" height="42" as="geometry" />
        </mxCell>
        <mxCell id="ZHKdVgREtUWNEgDNEaxb-25" value="Grupo" style="swimlane;fontStyle=1;align=center;verticalAlign=top;childLayout=stackLayout;horizontal=1;startSize=26;horizontalStack=0;resizeParent=1;resizeParentMax=0;resizeLast=0;collapsible=1;marginBottom=0;whiteSpace=wrap;html=1;rounded=1;labelBackgroundColor=none;strokeColor=light-dark(#000000,#FFFFFF);" parent="1" vertex="1">
          <mxGeometry x="290" y="540" width="190" height="160" as="geometry" />
        </mxCell>
        <mxCell id="ZHKdVgREtUWNEgDNEaxb-26" value="+id: int&lt;div&gt;+nome: string&lt;/div&gt;&lt;div&gt;+membros: list&amp;lt;usuario&amp;gt;&lt;/div&gt;&lt;div&gt;+mensagem: list&amp;lt;mensagem&amp;gt;&lt;/div&gt;&lt;div&gt;&lt;br&gt;&lt;/div&gt;" style="text;align=left;verticalAlign=top;spacingLeft=4;spacingRight=4;overflow=hidden;rotatable=0;points=[[0,0.5],[1,0.5]];portConstraint=eastwest;whiteSpace=wrap;html=1;rounded=1;labelBackgroundColor=none;strokeColor=light-dark(#000000,#FFFFFF);" parent="ZHKdVgREtUWNEgDNEaxb-25" vertex="1">
          <mxGeometry y="26" width="190" height="64" as="geometry" />
        </mxCell>
        <mxCell id="ZHKdVgREtUWNEgDNEaxb-27" value="" style="line;strokeWidth=1;align=left;verticalAlign=middle;spacingTop=-1;spacingLeft=3;spacingRight=3;rotatable=0;labelPosition=right;points=[];portConstraint=eastwest;rounded=1;labelBackgroundColor=none;strokeColor=light-dark(#000000,#FFFFFF);" parent="ZHKdVgREtUWNEgDNEaxb-25" vertex="1">
          <mxGeometry y="90" width="190" height="8" as="geometry" />
        </mxCell>
        <mxCell id="ZHKdVgREtUWNEgDNEaxb-28" value="+adicionarMembros()&lt;div&gt;+removerMembros()&lt;/div&gt;&lt;div&gt;+enviarMensagem()&lt;/div&gt;" style="text;align=left;verticalAlign=top;spacingLeft=4;spacingRight=4;overflow=hidden;rotatable=0;points=[[0,0.5],[1,0.5]];portConstraint=eastwest;whiteSpace=wrap;html=1;rounded=1;labelBackgroundColor=none;strokeColor=light-dark(#000000,#FFFFFF);" parent="ZHKdVgREtUWNEgDNEaxb-25" vertex="1">
          <mxGeometry y="98" width="190" height="62" as="geometry" />
        </mxCell>
        <mxCell id="ZHKdVgREtUWNEgDNEaxb-39" style="edgeStyle=orthogonalEdgeStyle;rounded=1;orthogonalLoop=1;jettySize=auto;html=1;exitX=1;exitY=0.5;exitDx=0;exitDy=0;entryX=0;entryY=0.5;entryDx=0;entryDy=0;labelBackgroundColor=none;fontColor=default;strokeColor=light-dark(#000000,#FFFFFF);" parent="1" source="ZHKdVgREtUWNEgDNEaxb-24" target="ZHKdVgREtUWNEgDNEaxb-26" edge="1">
          <mxGeometry relative="1" as="geometry" />
        </mxCell>
        <mxCell id="ZHKdVgREtUWNEgDNEaxb-44" style="edgeStyle=orthogonalEdgeStyle;rounded=1;orthogonalLoop=1;jettySize=auto;html=1;exitX=0;exitY=0.5;exitDx=0;exitDy=0;entryX=1;entryY=0;entryDx=0;entryDy=0;labelBackgroundColor=none;fontColor=default;strokeColor=light-dark(#000000,#FFFFFF);" parent="1" source="ZHKdVgREtUWNEgDNEaxb-6" target="ZHKdVgREtUWNEgDNEaxb-21" edge="1">
          <mxGeometry relative="1" as="geometry" />
        </mxCell>
        <mxCell id="ZHKdVgREtUWNEgDNEaxb-46" style="edgeStyle=orthogonalEdgeStyle;rounded=1;orthogonalLoop=1;jettySize=auto;html=1;exitX=1;exitY=0.5;exitDx=0;exitDy=0;entryX=0.5;entryY=0;entryDx=0;entryDy=0;labelBackgroundColor=none;fontColor=default;strokeColor=light-dark(#000000,#FFFFFF);" parent="1" source="ZHKdVgREtUWNEgDNEaxb-8" target="ZHKdVgREtUWNEgDNEaxb-25" edge="1">
          <mxGeometry relative="1" as="geometry" />
        </mxCell>
        <mxCell id="ZHKdVgREtUWNEgDNEaxb-47" style="edgeStyle=orthogonalEdgeStyle;rounded=1;orthogonalLoop=1;jettySize=auto;html=1;exitX=1;exitY=0.5;exitDx=0;exitDy=0;entryX=0;entryY=0.5;entryDx=0;entryDy=0;labelBackgroundColor=none;fontColor=default;strokeColor=light-dark(#000000,#FFFFFF);" parent="1" source="ZHKdVgREtUWNEgDNEaxb-6" target="ZHKdVgREtUWNEgDNEaxb-14" edge="1">
          <mxGeometry relative="1" as="geometry" />
        </mxCell>
      </root>
    </mxGraphModel>
  </diagram>
</mxfile>
